# WaveFront *.obj file (generated by CINEMA 4D)

mtllib ./FloorBaked_all_ex.mtl

v -263.0401611328125 246.19485473632812 376.39096069335938
v -263.0401611328125 0.19728088378906 376.39096069335938
v -263.04010009765625 246.19485473632812 -109.23857879638672
v -263.04010009765625 0.19728088378906 -109.23857879638672
v 222.58938598632812 246.19485473632812 376.39105224609375
v 222.58938598632812 0.19728088378906 376.39105224609375
v 222.58944702148438 246.19485473632812 -109.23850250244141
v 222.58944702148438 0.19728088378906 -109.23850250244141
v -263.0401611328125 217.67208862304688 376.39096069335938
v -263.0401611328125 100.35855102539062 376.39096069335938
v -263.04010009765625 100.35855102539062 -109.23857879638672
v -263.04010009765625 217.67208862304688 -109.23857879638672
v 222.58944702148438 100.35855102539062 -109.23850250244141
v 222.58944702148438 217.67208862304688 -109.23850250244141
v 222.58938598632812 100.35855102539062 376.39105224609375
v 222.58938598632812 217.67208862304688 376.39105224609375
v -263.0401611328125 0.19728088378906 322.03152465820312
v -263.04013061523438 0.19728088378906 202.66517639160156
v -263.04013061523438 246.19485473632812 202.66517639160156
v -263.0401611328125 246.19485473632812 322.03152465820312
v 222.58940124511719 0.19728088378906 202.66523742675781
v 222.58938598632812 0.19728088378906 322.03158569335938
v 222.58938598632812 246.19485473632812 322.03158569335938
v 222.58940124511719 246.19485473632812 202.66523742675781
v 222.58938598632812 100.35855102539062 322.03158569335938
v 222.58940124511719 100.35855102539062 202.66523742675781
v 222.58938598632812 217.67208862304688 322.03158569335938
v 222.58940124511719 217.67208862304688 202.66523742675781
v -263.04013061523438 100.35855102539062 202.66517639160156
v -263.0401611328125 100.35855102539062 322.03152465820312
v -263.04013061523438 217.67208862304688 202.66517639160156
v -263.0401611328125 217.67208862304688 322.03152465820312
v -268.9979248046875 99.35877227783203 380.76895141601562
v -268.9979248046875 -3.26008629798889 380.76895141601562
v -268.99789428710938 -3.26008629798889 202.78056335449219
v -268.99786376953125 -3.26008629798889 -116.77611541748047
v -268.99786376953125 219.55075073242188 -116.77611541748047
v -268.99786376953125 248.77336120605469 -116.77611541748047
v -268.9979248046875 248.77336120605469 325.07571411132812
v -268.9979248046875 248.77336120605469 380.76895141601562
v 228.54722595214844 -3.26008629798889 -116.77603912353516
v 228.54722595214844 219.55075073242188 -116.77603912353516
v 228.54722595214844 248.77336120605469 -116.77603912353516
v 228.54714965820312 -3.26008629798889 325.0758056640625
v 228.54714965820312 -3.26008629798889 380.76904296875
v 228.54714965820312 219.55075073242188 380.76904296875
v 228.54714965820312 248.77336120605469 380.76904296875
v 228.54716491699219 248.77336120605469 202.7806396484375
v -268.9979248046875 219.55075073242188 380.76895141601562
v -268.99786376953125 99.35877227783203 -116.77611541748047
v 228.54722595214844 99.35877227783203 -116.77603912353516
v 228.54714965820312 99.35877227783203 380.76904296875
v 228.54716491699219 99.35877227783203 202.7806396484375
v 228.54716491699219 219.55075073242188 202.7806396484375
v -268.9979248046875 99.35877227783203 325.07571411132812
v -268.9979248046875 219.55075073242188 325.07571411132812
v -268.9979248046875 -3.26008629798889 325.07571411132812
v -268.99789428710938 248.77336120605469 202.78056335449219
v 228.54716491699219 -3.26008629798889 202.7806396484375
v 228.54714965820312 248.77336120605469 325.0758056640625
v 228.54714965820312 99.35877227783203 325.0758056640625
v 228.54714965820312 219.55075073242188 325.0758056640625
v -268.99789428710938 99.35877227783203 202.78056335449219
v -268.99789428710938 219.55075073242188 202.78056335449219
# 64 vertices

vn -1 0 -0.00000009784294
vn -1 0 -0.00000017675305
vn 0.00000015710317 0 -1
vn 1 0 0
vn 1 0 0.00000006391579
vn 1 0 0.00000004261053
vn -0.00000018852381 0 1
vn 0 1 0
vn 0 -1 0
vn -1 0 -0.00000012783158
vn -1 0 0
vn 1 0 0.00000014045348
vn 1 0 0.00000014676441
vn 1 0 0.00000017252006
vn 1 0 0.00000009549974
vn 1 0 0.000000137298
vn -0.00000015334076 0 1
vn -1 0 -0.00000006238509
vn -1 0 -0.00000004159006
vn 0.00000018400893 0 -1
vn 1 0 0.00000017252005
vn 1 0 0.00000009549974
vn 1 0 0.0000001247702
vn 1 0 0.00000012477018
vn -1 0 -0.00000019099947
vn -1 0 -0.00000016892305
vn -1 0 -0.00000019099949
vn -1 0 -0.00000015788484
vn -1 0 -0.00000015788483
vn -0.16549700498581 -0.98621028661728 -0.00000002090476
vn 0.01936642453074 0 -0.99981242418289
vn -0.45500674843788 0 0.89048796892166
vn -0.30073153972626 0.95370882749558 -0.000000045036
# 33 normals

vt 0.34865486621857 0.46530473232269 0
vt 0.34865486621857 0.49394023418427 0
vt 0.55782353878021 0.49394023418427 0
vt 0.55782353878021 0.46530473232269 0
vt 1 0.02863550186157 0
vt 1 0 0
vt 0.67432874441147 0 0
vt 0.67432874441147 0.02863550186157 0
vt 0.71208828687668 0.24697017669678 0
vt 0.67432743310928 0.24697017669678 0
vt 0.67432743310928 0.27461504936218 0
vt 0.71208828687668 0.27461504936218 0
vt 0.34898781776428 0.02863562107086 0
vt 0.34898781776428 0 0
vt 0.02402299642563 0 0
vt 0.02402299642563 0.02863562107086 0
vt 0.0239474773407 0.49394023418427 0
vt 0.34865480661392 0.49394023418427 0
vt 0.34865480661392 0.33531951904297 0
vt 0.0239474773407 0.33531951904297 0
vt 0.67432737350464 0 0
vt 0.34898778796196 0.1586207151413 0
vt 0.67432737350464 0.1586207151413 0
vt 0.34898775815964 0.24697017669678 0
vt 0.34898778796196 0.14641284942627 0
vt 0.02402299642563 0.14641284942627 0
vt 0.02402305603027 0.24697017669678 0
vt 1 0.24697017669678 0
vt 0.86739802360535 0.24697017669678 0
vt 0.86739802360535 0.27461504936218 0
vt 1 0.27461504936218 0
vt 1 0.24697005748749 0
vt 1 0.14641284942627 0
vt 0.67432874441147 0.14641284942627 0
vt 0.67432874441147 0.24697017669678 0
vt 0.34865486621857 0.24697017669678 0
vt 0.34865486621857 0.347527384758 0
vt 0.55782353878021 0.347527384758 0
vt 0.55782353878021 0.24697017669678 0
vt 0.63787293434143 0.347527384758 0
vt 0.63787293434143 0.46530473232269 0
vt 0.67432737350464 0.46530473232269 0
vt 0.67432743310928 0.347527384758 0
vt 0.63787293434143 0.24697017669678 0
vt 0.8673979640007 0.33531951904297 0
vt 0.71208828687668 0.33531951904297 0
vt 0.71208828687668 0.49394023418427 0
vt 0.8673979640007 0.49394023418427 0
vt 0.66633659601212 0.83748733997345 0
vt 0.66633659601212 1 0
vt 0.70502400398254 1 0
vt 0.70502400398254 0.83748733997345 0
vt 1 0.33531963825226 0
vt 1 0.49394023418427 0
vt 0.67432737350464 0.21932530403137 0
vt 0.3489878475666 0.21932530403137 0
vt 0.34898781776428 0.24697017669678 0
vt 0.0239474773407 0.27461493015289 0
vt 0.34865480661392 0.27461504936218 0
vt 0.34865480661392 0.24697017669678 0
vt 0.0239474773407 0.24697017669678 0
vt 0.67432743310928 0.33531951904297 0
vt 0.67432749271393 0.49394023418427 0
vt 0.63787293434143 0.49394023418427 0
vt 0.67432737350464 0.49394023418427 0
vt 0.33301430940628 0.49394023418427 0
vt 0.00007611513138 0.49394035339355 0
vt 0.00007611513138 0.52327841520309 0
vt 0.33301430940628 0.52327835559845 0
vt 0.962651014328 0.74697017669678 0
vt 0.99999994039536 0.74697017669678 0
vt 0.99999994039536 0.71763199567795 0
vt 0.962651014328 0.71763199567795 0
vt 0.66633653640747 0.74697017669678 0
vt 0.33267450332642 0.74697017669678 0
vt 0.33267447352409 0.77630829811096 0
vt 0.66633653640747 0.77630829811096 0
vt 0.66633653640747 0.65645295381546 0
vt 0.66633653640747 0.49394035339355 0
vt 0.33301436901093 0.49394035339355 0
vt 0.33301436901093 0.65645295381546 0
vt 0.33267447352409 0.90948277711868 0
vt 0.33267444372177 0.74697011709213 0
vt 0 0.74697011709213 0
vt 0.00000005960464 0.90948277711868 0
vt 0.66633653640747 0.89697539806366 0
vt 0.33267453312874 0.8969754576683 0
vt 0.33267450332642 1 0
vt 0.66633653640747 1 0
vt 0.962651014328 0.59696483612061 0
vt 1 0.59696489572525 0
vt 0.962651014328 0.49394035339355 0
vt 0.33301436901093 0.64394551515579 0
vt 0.00007617473602 0.64394557476044 0
vt 0.00007623434067 0.74697005748749 0
vt 0.33301436901093 0.74697005748749 0
vt 0.86414432525635 0.83748733997345 0
vt 0.86414432525635 1 0
vt 1 1 0
vt 0.99999994039536 0.83748733997345 0
vt 0.70502400398254 0.74697017669678 0
vt 0.70502400398254 0.77529335021973 0
vt 0.86414432525635 0.77529335021973 0
vt 0.86414432525635 0.74697017669678 0
vt 0.99999994039536 0.77529335021973 0
vt 0.66633659601212 0.71763199567795 0
vt 0.88063752651215 0.71763199567795 0
vt 0.88063752651215 0.59696483612061 0
vt 0.66633665561676 0.59696483612061 0
vt 0.88063752651215 0.49394035339355 0
vt 0.66633665561676 0.49394035339355 0
vt 0.33267444372177 0.99999994039536 0
vt 0.33267444372177 0.97167682647705 0
vt 0.00000005960464 0.97167682647705 0
vt 0.00000005960464 1 0
vt 0.66633659601212 0.74697011709213 0
vt 0.66633659601212 0.71864694356918 0
vt 0.33301442861557 0.71864694356918 0
vt 0.33301442861557 0.74697011709213 0
vt 0.66633665561676 0.74697011709213 0
vt 0.88063752651215 0.74697017669678 0
vt 0.66633659601212 0.74697017669678 0
vt 0.66633659601212 0.77529329061508 0
vt 0.01977252960205 0.37327301502228 0
vt 0.0197725892067 0.31107902526855 0
vt 0.01572144031525 0.3110203742981 0
vt 0.01572144031525 0.37172484397888 0
vt 0.01583063602448 0.37327301502228 0
vt 0.01583063602448 0.49394011497498 0
vt 0.01982623338699 0.49205410480499 0
vt 0.01982623338699 0.3742767572403 0
vt 0.01982623338699 0.37327301502228 0
vt 0.01982623338699 0.49394011497498 0
vt 0.0239474773407 0.49293637275696 0
vt 0.02394741773605 0.37515914440155 0
vt 0.01977252960205 0.31107902526855 0
vt 0.0239474773407 0.37172484397888 0
vt 0.02394741773605 0.3110203742981 0
# 138 texture coordinates

o Cube.002
usemtl House
f 31/4/2 19/3/2 3/2/1 12/1/1
f 12/8/3 3/7/3 7/6/3 14/5/3
f 27/12/6 23/11/5 5/10/4 16/9/4
f 16/16/7 5/15/7 1/14/7 9/13/7
f 19/20/8 24/19/8 7/18/8 3/17/8
f 21/23/9 18/22/9 4/14/9 8/21/9
f 6/27/7 15/26/7 10/25/7 2/24/7
f 15/26/7 16/16/7 9/13/7 10/25/7
f 22/31/5 25/30/6 15/29/4 6/28/4
f 25/30/6 27/12/6 16/9/4 15/29/4
f 4/35/3 11/34/3 13/33/3 8/32/3
f 11/34/3 12/8/3 14/5/3 13/33/3
f 18/39/2 29/38/2 11/37/1 4/36/1
f 29/38/2 31/4/2 12/1/1 11/37/1
f 10/43/11 9/42/11 32/41/10 30/40/10
f 30/40/10 32/41/10 31/4/2 29/38/2
f 2/10/11 10/43/11 30/40/10 17/44/10
f 17/44/10 30/40/10 29/38/2 18/39/2
f 13/48/13 14/47/13 28/46/12 26/45/12
f 64/52/14 37/51/15 38/50/15 58/49/14
f 8/54/13 13/48/13 26/45/12 21/53/16
f 21/53/16 26/45/12 25/30/6 22/31/5
f 6/10/9 2/57/9 17/56/9 22/55/9
f 22/55/9 17/56/9 18/22/9 21/23/9
f 1/61/8 5/60/8 23/59/8 20/58/8
f 20/58/8 23/59/8 24/19/8 19/20/8
f 14/47/13 7/63/13 24/62/16 28/46/12
f 28/46/12 24/62/16 23/11/5 27/12/6
f 9/42/11 1/65/11 20/64/10 32/41/10
f 32/41/10 20/64/10 19/3/2 31/4/2
f 37/69/17 42/68/17 43/67/17 38/66/17
f 62/73/19 46/72/11 47/71/11 60/70/18
f 46/77/20 49/76/20 40/75/20 47/74/20
f 58/81/9 38/80/9 43/79/9 48/78/9
f 59/85/8 41/84/8 36/83/8 35/82/8
f 45/89/20 34/88/20 33/87/20 52/86/20
f 52/86/20 33/87/20 49/76/20 46/77/20
f 44/92/18 45/54/11 52/91/11 61/90/19
f 61/90/19 52/91/11 46/72/11 62/73/19
f 36/96/17 41/95/17 51/94/17 50/93/17
f 50/93/17 51/94/17 42/68/17 37/69/17
f 35/100/14 36/99/22 50/98/22 63/97/21
f 63/97/21 50/98/22 37/51/15 64/52/14
f 33/104/4 55/103/24 56/102/23 49/101/4
f 55/103/24 63/97/21 64/52/14 56/102/23
f 34/71/4 57/105/24 55/103/24 33/104/4
f 57/105/24 35/100/14 63/97/21 55/103/24
f 51/109/27 53/108/26 54/107/26 42/106/25
f 41/111/27 59/110/28 53/108/26 51/109/27
f 59/110/28 44/92/18 61/90/19 53/108/26
f 45/115/8 44/114/8 57/113/8 34/112/8
f 44/114/8 59/85/8 35/82/8 57/113/8
f 40/119/9 39/118/9 60/117/9 47/116/9
f 39/118/9 58/81/9 48/78/9 60/117/9
f 42/106/25 54/107/26 48/121/29 43/120/25
f 54/107/26 62/73/19 60/70/18 48/121/29
f 49/101/4 56/102/23 39/123/23 40/122/4
f 56/102/23 64/52/14 58/49/14 39/123/23
f 25/127/30 26/126/30 53/125/30 61/124/30
f 26/131/31 28/130/31 54/129/31 53/128/31
f 27/135/32 25/134/32 61/133/32 62/132/32
f 28/138/33 27/137/33 62/124/33 54/136/33

